<?xml version="1.0" encoding="UTF-8" standalone="no"?>
<!DOCTYPE svg PUBLIC "-//W3C//DTD SVG 1.1//EN"
 "http://www.w3.org/Graphics/SVG/1.1/DTD/svg11.dtd">
<!-- Generated by graphviz version 2.38.0 (20140413.2041)
 -->
<!-- Title: controllers_diagram Pages: 1 -->
<svg width="509pt" height="467pt"
 viewBox="0.00 0.00 509.50 467.00" xmlns="http://www.w3.org/2000/svg" xmlns:xlink="http://www.w3.org/1999/xlink">
<g id="graph0" class="graph" transform="scale(1 1) rotate(0) translate(211.5 255.5)">
<title>controllers_diagram</title>
<polygon fill="none" stroke="none" points="-211.5,211.5 -211.5,-255.5 298,-255.5 298,211.5 -211.5,211.5"/>
<!-- _diagram_info -->
<g id="node1" class="node"><title>_diagram_info</title>
<text text-anchor="start" x="88" y="16.4" font-family="Times,serif" font-size="13.00">Controllers diagram</text>
<text text-anchor="start" x="88" y="30.4" font-family="Times,serif" font-size="13.00">Date: Feb 01 2018 &#45; 12:09</text>
<text text-anchor="start" x="88" y="44.4" font-family="Times,serif" font-size="13.00">Migration version: 20180130133822</text>
<text text-anchor="start" x="88" y="58.4" font-family="Times,serif" font-size="13.00">Generated by RailRoady 1.5.3</text>
<text text-anchor="start" x="88" y="72.4" font-family="Times,serif" font-size="13.00">http://railroady.prestonlee.com</text>
</g>
<!-- PaintingsController -->
<g id="node2" class="node"><title>PaintingsController</title>
<path fill="none" stroke="black" d="M92,-32C92,-32 190,-32 190,-32 196,-32 202,-38 202,-44 202,-44 202,-188 202,-188 202,-194 196,-200 190,-200 190,-200 92,-200 92,-200 86,-200 80,-194 80,-188 80,-188 80,-44 80,-44 80,-38 86,-32 92,-32"/>
<text text-anchor="middle" x="141" y="-184.8" font-family="Times,serif" font-size="14.00">PaintingsController</text>
<polyline fill="none" stroke="black" points="80,-177 202,-177 "/>
<text text-anchor="start" x="88" y="-161.8" font-family="Times,serif" font-size="14.00">create</text>
<text text-anchor="start" x="88" y="-146.8" font-family="Times,serif" font-size="14.00">index</text>
<text text-anchor="start" x="88" y="-131.8" font-family="Times,serif" font-size="14.00">new</text>
<text text-anchor="start" x="88" y="-116.8" font-family="Times,serif" font-size="14.00">users_id</text>
<text text-anchor="start" x="88" y="-101.8" font-family="Times,serif" font-size="14.00">users_id=</text>
<polyline fill="none" stroke="black" points="80,-94 202,-94 "/>
<polyline fill="none" stroke="black" points="80,-70 202,-70 "/>
<text text-anchor="start" x="88" y="-54.8" font-family="Times,serif" font-size="14.00">_layout</text>
<text text-anchor="start" x="88" y="-39.8" font-family="Times,serif" font-size="14.00">painting_params</text>
</g>
<!-- UsersController -->
<g id="node3" class="node"><title>UsersController</title>
<path fill="none" stroke="black" d="M-52,111C-52,111 42,111 42,111 48,111 54,105 54,99 54,99 54,-75 54,-75 54,-81 48,-87 42,-87 42,-87 -52,-87 -52,-87 -58,-87 -64,-81 -64,-75 -64,-75 -64,99 -64,99 -64,105 -58,111 -52,111"/>
<text text-anchor="middle" x="-5" y="-71.8" font-family="Times,serif" font-size="14.00">UsersController</text>
<polyline fill="none" stroke="black" points="-64,-64 54,-64 "/>
<text text-anchor="start" x="-56" y="-48.8" font-family="Times,serif" font-size="14.00">create</text>
<text text-anchor="start" x="-56" y="-33.8" font-family="Times,serif" font-size="14.00">delete</text>
<text text-anchor="start" x="-56" y="-18.8" font-family="Times,serif" font-size="14.00">edit</text>
<text text-anchor="start" x="-56" y="-3.8" font-family="Times,serif" font-size="14.00">new</text>
<text text-anchor="start" x="-56" y="11.2" font-family="Times,serif" font-size="14.00">remember_token</text>
<text text-anchor="start" x="-56" y="26.2" font-family="Times,serif" font-size="14.00">remember_token=</text>
<text text-anchor="start" x="-56" y="41.2" font-family="Times,serif" font-size="14.00">update</text>
<polyline fill="none" stroke="black" points="-64,49 54,49 "/>
<polyline fill="none" stroke="black" points="-64,73 54,73 "/>
<text text-anchor="start" x="-56" y="88.2" font-family="Times,serif" font-size="14.00">_layout</text>
<text text-anchor="start" x="-56" y="103.2" font-family="Times,serif" font-size="14.00">user_params</text>
</g>
<!-- ApplicationController -->
<g id="node4" class="node"><title>ApplicationController</title>
<path fill="none" stroke="black" d="M92,207C92,207 204,207 204,207 210,207 216,201 216,195 216,195 216,125 216,125 216,119 210,113 204,113 204,113 92,113 92,113 86,113 80,119 80,125 80,125 80,195 80,195 80,201 86,207 92,207"/>
<text text-anchor="middle" x="148" y="128.2" font-family="Times,serif" font-size="14.00">ApplicationController</text>
<polyline fill="none" stroke="black" points="80,136 216,136 "/>
<polyline fill="none" stroke="black" points="80,160 216,160 "/>
<polyline fill="none" stroke="black" points="80,184 216,184 "/>
<text text-anchor="start" x="88" y="199.2" font-family="Times,serif" font-size="14.00">_layout</text>
</g>
<!-- SessionsController -->
<g id="node5" class="node"><title>SessionsController</title>
<path fill="none" stroke="black" d="M-195.5,47.5C-195.5,47.5 -100.5,47.5 -100.5,47.5 -94.5,47.5 -88.5,41.5 -88.5,35.5 -88.5,35.5 -88.5,-63.5 -88.5,-63.5 -88.5,-69.5 -94.5,-75.5 -100.5,-75.5 -100.5,-75.5 -195.5,-75.5 -195.5,-75.5 -201.5,-75.5 -207.5,-69.5 -207.5,-63.5 -207.5,-63.5 -207.5,35.5 -207.5,35.5 -207.5,41.5 -201.5,47.5 -195.5,47.5"/>
<text text-anchor="middle" x="-148" y="-60.3" font-family="Times,serif" font-size="14.00">SessionsController</text>
<polyline fill="none" stroke="black" points="-207.5,-52.5 -88.5,-52.5 "/>
<text text-anchor="start" x="-199.5" y="-37.3" font-family="Times,serif" font-size="14.00">create</text>
<text text-anchor="start" x="-199.5" y="-22.3" font-family="Times,serif" font-size="14.00">destroy</text>
<text text-anchor="start" x="-199.5" y="-7.3" font-family="Times,serif" font-size="14.00">new</text>
<polyline fill="none" stroke="black" points="-207.5,0.5 -88.5,0.5 "/>
<polyline fill="none" stroke="black" points="-207.5,24.5 -88.5,24.5 "/>
<text text-anchor="start" x="-199.5" y="39.7" font-family="Times,serif" font-size="14.00">_layout</text>
</g>
<!-- ParametersController -->
<g id="node6" class="node"><title>ParametersController</title>
<path fill="none" stroke="black" d="M-67.5,-113C-67.5,-113 41.5,-113 41.5,-113 47.5,-113 53.5,-119 53.5,-125 53.5,-125 53.5,-239 53.5,-239 53.5,-245 47.5,-251 41.5,-251 41.5,-251 -67.5,-251 -67.5,-251 -73.5,-251 -79.5,-245 -79.5,-239 -79.5,-239 -79.5,-125 -79.5,-125 -79.5,-119 -73.5,-113 -67.5,-113"/>
<text text-anchor="middle" x="-13" y="-235.8" font-family="Times,serif" font-size="14.00">ParametersController</text>
<polyline fill="none" stroke="black" points="-79.5,-228 53.5,-228 "/>
<text text-anchor="start" x="-71.5" y="-212.8" font-family="Times,serif" font-size="14.00">create</text>
<text text-anchor="start" x="-71.5" y="-197.8" font-family="Times,serif" font-size="14.00">home</text>
<text text-anchor="start" x="-71.5" y="-182.8" font-family="Times,serif" font-size="14.00">update</text>
<polyline fill="none" stroke="black" points="-79.5,-175 53.5,-175 "/>
<polyline fill="none" stroke="black" points="-79.5,-151 53.5,-151 "/>
<text text-anchor="start" x="-71.5" y="-135.8" font-family="Times,serif" font-size="14.00">_layout</text>
<text text-anchor="start" x="-71.5" y="-120.8" font-family="Times,serif" font-size="14.00">parameters_params</text>
</g>
</g>
</svg>
