<?xml version="1.0" encoding="UTF-8" standalone="no"?>
<!DOCTYPE svg PUBLIC "-//W3C//DTD SVG 1.1//EN"
 "http://www.w3.org/Graphics/SVG/1.1/DTD/svg11.dtd">
<!-- Generated by graphviz version 2.38.0 (20140413.2041)
 -->
<!-- Title: models_diagram Pages: 1 -->
<svg width="462pt" height="318pt"
 viewBox="0.00 0.00 462.00 318.00" xmlns="http://www.w3.org/2000/svg" xmlns:xlink="http://www.w3.org/1999/xlink">
<g id="graph0" class="graph" transform="scale(1 1) rotate(0) translate(4 314)">
<title>models_diagram</title>
<polygon fill="none" stroke="none" points="-4,4 -4,-314 458,-314 458,4 -4,4"/>
<!-- _diagram_info -->
<g id="node1" class="node"><title>_diagram_info</title>
<text text-anchor="start" x="8" y="-266.1" font-family="Times,serif" font-size="13.00">Models diagram</text>
<text text-anchor="start" x="8" y="-252.1" font-family="Times,serif" font-size="13.00">Date: Feb 01 2018 &#45; 12:09</text>
<text text-anchor="start" x="8" y="-238.1" font-family="Times,serif" font-size="13.00">Migration version: 20180130133822</text>
<text text-anchor="start" x="8" y="-224.1" font-family="Times,serif" font-size="13.00">Generated by RailRoady 1.5.3</text>
<text text-anchor="start" x="8" y="-210.1" font-family="Times,serif" font-size="13.00">http://railroady.prestonlee.com</text>
</g>
<!-- User -->
<g id="node2" class="node"><title>User</title>
<path fill="none" stroke="black" d="M244,-173.5C244,-173.5 380,-173.5 380,-173.5 386,-173.5 392,-179.5 392,-185.5 392,-185.5 392,-297.5 392,-297.5 392,-303.5 386,-309.5 380,-309.5 380,-309.5 244,-309.5 244,-309.5 238,-309.5 232,-303.5 232,-297.5 232,-297.5 232,-185.5 232,-185.5 232,-179.5 238,-173.5 244,-173.5"/>
<text text-anchor="middle" x="312" y="-294.3" font-family="Times,serif" font-size="14.00">User</text>
<polyline fill="none" stroke="black" points="232,-286.5 392,-286.5 "/>
<text text-anchor="start" x="240" y="-271.3" font-family="Times,serif" font-size="14.00">id :INTEGER</text>
<text text-anchor="start" x="240" y="-256.3" font-family="Times,serif" font-size="14.00">username :varchar</text>
<text text-anchor="start" x="240" y="-241.3" font-family="Times,serif" font-size="14.00">email :varchar</text>
<text text-anchor="start" x="240" y="-226.3" font-family="Times,serif" font-size="14.00">password_digest :varchar</text>
<text text-anchor="start" x="240" y="-211.3" font-family="Times,serif" font-size="14.00">created_at :datetime</text>
<text text-anchor="start" x="240" y="-196.3" font-family="Times,serif" font-size="14.00">updated_at :datetime</text>
<text text-anchor="start" x="240" y="-181.3" font-family="Times,serif" font-size="14.00">remember_digest :varchar</text>
</g>
<!-- Painting -->
<g id="node3" class="node"><title>Painting</title>
<path fill="none" stroke="black" d="M182.5,-8C182.5,-8 289.5,-8 289.5,-8 295.5,-8 301.5,-14 301.5,-20 301.5,-20 301.5,-117 301.5,-117 301.5,-123 295.5,-129 289.5,-129 289.5,-129 182.5,-129 182.5,-129 176.5,-129 170.5,-123 170.5,-117 170.5,-117 170.5,-20 170.5,-20 170.5,-14 176.5,-8 182.5,-8"/>
<text text-anchor="middle" x="236" y="-113.8" font-family="Times,serif" font-size="14.00">Painting</text>
<polyline fill="none" stroke="black" points="170.5,-106 301.5,-106 "/>
<text text-anchor="start" x="178.5" y="-90.8" font-family="Times,serif" font-size="14.00">id :INTEGER</text>
<text text-anchor="start" x="178.5" y="-75.8" font-family="Times,serif" font-size="14.00">mark :integer</text>
<text text-anchor="start" x="178.5" y="-60.8" font-family="Times,serif" font-size="14.00">JsonData :text</text>
<text text-anchor="start" x="178.5" y="-45.8" font-family="Times,serif" font-size="14.00">users_id :integer</text>
<text text-anchor="start" x="178.5" y="-30.8" font-family="Times,serif" font-size="14.00">created_at :datetime</text>
<text text-anchor="start" x="178.5" y="-15.8" font-family="Times,serif" font-size="14.00">updated_at :datetime</text>
</g>
<!-- User&#45;&gt;Painting -->
<g id="edge2" class="edge"><title>User&#45;&gt;Painting</title>
<path fill="none" stroke="#48ade4" d="M278.81,-165.823C274.767,-156.726 270.65,-147.463 266.646,-138.454"/>
<ellipse fill="none" stroke="#48ade4" cx="280.556" cy="-169.752" rx="4.00002" ry="4.00002"/>
<polygon fill="#48ade4" stroke="#48ade4" points="266.584,-138.314 266.635,-127.349 264.553,-133.745 262.523,-129.176 262.523,-129.176 262.523,-129.176 264.553,-133.745 258.411,-131.004 266.584,-138.314 266.584,-138.314"/>
</g>
<!-- Parameter -->
<g id="node4" class="node"><title>Parameter</title>
<path fill="none" stroke="black" d="M332,-0.5C332,-0.5 442,-0.5 442,-0.5 448,-0.5 454,-6.5 454,-12.5 454,-12.5 454,-124.5 454,-124.5 454,-130.5 448,-136.5 442,-136.5 442,-136.5 332,-136.5 332,-136.5 326,-136.5 320,-130.5 320,-124.5 320,-124.5 320,-12.5 320,-12.5 320,-6.5 326,-0.5 332,-0.5"/>
<text text-anchor="middle" x="387" y="-121.3" font-family="Times,serif" font-size="14.00">Parameter</text>
<polyline fill="none" stroke="black" points="320,-113.5 454,-113.5 "/>
<text text-anchor="start" x="328" y="-98.3" font-family="Times,serif" font-size="14.00">id :INTEGER</text>
<text text-anchor="start" x="328" y="-83.3" font-family="Times,serif" font-size="14.00">nbRectBlack :integer</text>
<text text-anchor="start" x="328" y="-68.3" font-family="Times,serif" font-size="14.00">nbRectWhite :integer</text>
<text text-anchor="start" x="328" y="-53.3" font-family="Times,serif" font-size="14.00">progressif :boolean</text>
<text text-anchor="start" x="328" y="-38.3" font-family="Times,serif" font-size="14.00">users_id :integer</text>
<text text-anchor="start" x="328" y="-23.3" font-family="Times,serif" font-size="14.00">created_at :datetime</text>
<text text-anchor="start" x="328" y="-8.3" font-family="Times,serif" font-size="14.00">updated_at :datetime</text>
</g>
<!-- User&#45;&gt;Parameter -->
<g id="edge1" class="edge"><title>User&#45;&gt;Parameter</title>
<path fill="none" stroke="#56b33e" d="M344.677,-165.997C347.55,-159.445 350.462,-152.806 353.344,-146.237"/>
<ellipse fill="none" stroke="#56b33e" cx="343.033" cy="-169.744" rx="4.00002" ry="4.00002"/>
<polygon fill="#56b33e" stroke="#56b33e" points="353.518,-145.838 361.656,-138.488 355.527,-141.259 357.535,-136.68 357.535,-136.68 357.535,-136.68 355.527,-141.259 353.414,-134.873 353.518,-145.838 353.518,-145.838"/>
</g>
</g>
</svg>
