<?xml version="1.0" encoding="UTF-8" standalone="no"?>
<!DOCTYPE svg PUBLIC "-//W3C//DTD SVG 1.1//EN"
 "http://www.w3.org/Graphics/SVG/1.1/DTD/svg11.dtd">
<!-- Generated by graphviz version 2.38.0 (20140413.2041)
 -->
<!-- Title: models_diagram Pages: 1 -->
<svg width="366pt" height="158pt"
 viewBox="0.00 0.00 365.80 158.00" xmlns="http://www.w3.org/2000/svg" xmlns:xlink="http://www.w3.org/1999/xlink">
<g id="graph0" class="graph" transform="scale(1 1) rotate(0) translate(4 154)">
<title>models_diagram</title>
<polygon fill="none" stroke="none" points="-4,4 -4,-154 361.796,-154 361.796,4 -4,4"/>
<!-- _diagram_info -->
<g id="node1" class="node"><title>_diagram_info</title>
<text text-anchor="start" x="8" y="-135.6" font-family="Times,serif" font-size="13.00">Models diagram</text>
<text text-anchor="start" x="8" y="-121.6" font-family="Times,serif" font-size="13.00">Date: Feb 01 2018 &#45; 12:09</text>
<text text-anchor="start" x="8" y="-107.6" font-family="Times,serif" font-size="13.00">Migration version: 20180130133822</text>
<text text-anchor="start" x="8" y="-93.6" font-family="Times,serif" font-size="13.00">Generated by RailRoady 1.5.3</text>
<text text-anchor="start" x="8" y="-79.6" font-family="Times,serif" font-size="13.00">http://railroady.prestonlee.com</text>
</g>
<!-- User -->
<g id="node2" class="node"><title>User</title>
<ellipse fill="none" stroke="black" cx="259" cy="-111" rx="27.0966" ry="18"/>
<text text-anchor="middle" x="259" y="-107.3" font-family="Times,serif" font-size="14.00">User</text>
</g>
<!-- Painting -->
<g id="node3" class="node"><title>Painting</title>
<ellipse fill="none" stroke="black" cx="206" cy="-18" rx="40.0939" ry="18"/>
<text text-anchor="middle" x="206" y="-14.3" font-family="Times,serif" font-size="14.00">Painting</text>
</g>
<!-- User&#45;&gt;Painting -->
<g id="edge2" class="edge"><title>User&#45;&gt;Painting</title>
<path fill="none" stroke="#08c9c9" d="M245.483,-86.7908C237.942,-73.8432 228.538,-57.6972 220.8,-44.4108"/>
<ellipse fill="none" stroke="#08c9c9" cx="247.512" cy="-90.2745" rx="4.00002" ry="4.00002"/>
<polygon fill="#08c9c9" stroke="#08c9c9" points="220.785,-44.385 219.64,-33.479 218.268,-40.0644 215.752,-35.7438 215.752,-35.7438 215.752,-35.7438 218.268,-40.0644 211.863,-38.0086 220.785,-44.385 220.785,-44.385"/>
</g>
<!-- Parameter -->
<g id="node4" class="node"><title>Parameter</title>
<ellipse fill="none" stroke="black" cx="311" cy="-18" rx="46.5926" ry="18"/>
<text text-anchor="middle" x="311" y="-14.3" font-family="Times,serif" font-size="14.00">Parameter</text>
</g>
<!-- User&#45;&gt;Parameter -->
<g id="edge1" class="edge"><title>User&#45;&gt;Parameter</title>
<path fill="none" stroke="#a902fc" d="M272.509,-86.3589C279.81,-73.5825 288.834,-57.7898 296.31,-44.7082"/>
<ellipse fill="none" stroke="#a902fc" cx="270.281" cy="-90.258" rx="4.00002" ry="4.00002"/>
<polygon fill="#a902fc" stroke="#a902fc" points="296.471,-44.4262 305.339,-37.9764 298.951,-40.085 301.432,-35.7438 301.432,-35.7438 301.432,-35.7438 298.951,-40.085 297.525,-33.5112 296.471,-44.4262 296.471,-44.4262"/>
</g>
</g>
</svg>
